<svg xmlns="http://www.w3.org/2000/svg" width="12.737" height="14.152" viewBox="0 0 12.737 14.152">
  <path id="cart-icon" d="M1,.708A.709.709,0,0,1,1.71,0H2.775A1.063,1.063,0,0,1,3.84,1.061v.4l8.9.642a1.064,1.064,0,0,1,.988,1.21l-.613,4.27a1.064,1.064,0,0,1-1.054.911H3.84V9.906h7.106a2.12,2.12,0,1,1-2.009,1.415h-3.8A2.131,2.131,0,1,1,2.42,10.027V1.415H1.71A.709.709,0,0,1,1,.708Zm9.237,11.321a.71.71,0,1,1,.71.708A.709.709,0,0,1,10.237,12.029Zm-7.817,0a.71.71,0,1,1,.71.708.709.709,0,0,1-.71-.708Z" transform="translate(-1)" fill="#533174" fill-rule="evenodd"/>
</svg>
