<svg xmlns="http://www.w3.org/2000/svg" xmlns:xlink="http://www.w3.org/1999/xlink" width="83.794" height="87.393"><defs><clipPath id="c"><path fill="none" d="M0 2.896a2.9 2.9 0 1 0 2.9-2.9 2.9 2.9 0 0 0-2.9 2.9" data-name="Path 50"/></clipPath><clipPath id="d"><path fill="none" d="M2.896-.001a2.9 2.9 0 1 0 2.9 2.9 2.9 2.9 0 0 0-2.9-2.9" data-name="Path 51"/></clipPath><clipPath id="e"><path fill="none" d="M0 1.644h1.57A12 12 0 0 0 2.69 0S1.633.676 0 1.644" data-name="Path 52"/></clipPath><clipPath id="g"><path fill="none" d="M-.003 75.546h17.64a40 40 0 0 1-7.264-5.541H5.541v-5.6a39.1 39.1 0 0 1-5.144-9.971c-.136-.048-.264-.115-.4-.17Zm70.009-10.954v5.413h-4.669a39.3 39.3 0 0 1-7.267 5.541h17.477v-22.1a39.3 39.3 0 0 1-5.541 11.148M-.003 0v39.94a7.8 7.8 0 0 1 1.738-.5l3.8-.609V5.541h40.928A21 21 0 0 1 50.679 0Zm74.832 0a27.85 27.85 0 0 1-4.826 10.733v17.769l1.377-.22a7.74 7.74 0 0 1 4.164.48V0Z" data-name="Path 53"/></clipPath><clipPath id="i"><path fill="none" d="M.051 24.835c5.26-1.077 16.557-11.763 16.557-11.763-2.254 6.88-14.187 15.836-14.187 15.836C33.068 30.646 27.343 0 27.343 0-2.43 3.832.051 24.835.051 24.835" data-name="Path 54"/></clipPath><clipPath id="k"><path fill="none" d="M-.003 2.896a2.89 2.89 0 0 0 .776 1.963l4.707-.686a2.9 2.9 0 0 0 .308-1.276 2.9 2.9 0 0 0-5.791 0" data-name="Path 55"/></clipPath><clipPath id="m"><path fill="none" d="m5.961 22.948 10.916-1.59c-2.52-2.646-4.845-5.622-5.718-8.287a111 111 0 0 0 9.279 7.767l6.94-1.011C26.105 13.363 20.872 2.627.423 0c0 0-2.7 14.456 5.538 22.948" data-name="Path 56"/></clipPath><clipPath id="o"><path fill="none" d="M0 12.989A35.39 35.39 0 1 0 69.578 0Z" data-name="Path 57"/></clipPath><clipPath id="q"><path fill="none" d="M72.281.062 2.944 13.004a3.607 3.607 0 0 0 1.324 7.091L73.603 7.151A3.606 3.606 0 0 0 72.947 0a3.7 3.7 0 0 0-.666.062" data-name="Path 58"/></clipPath><clipPath id="s"><path fill="none" d="M0 0h83.794v87.393H0z" data-name="Rectangle 3299"/></clipPath><radialGradient id="b" cx=".122" cy="-.073" r="1.648" gradientUnits="objectBoundingBox"><stop offset="0" stop-color="#e9ad2b"/><stop offset=".333" stop-color="#e9ad2b"/><stop offset=".501" stop-color="#e18a2e"/><stop offset=".66" stop-color="#db7130"/><stop offset=".804" stop-color="#d86232"/><stop offset=".922" stop-color="#d75d33"/><stop offset="1" stop-color="#d75d33"/></radialGradient><radialGradient id="a" cx=".122" cy="-.073" r="1.53" gradientUnits="objectBoundingBox"><stop offset="0" stop-color="#d81988"/><stop offset=".004" stop-color="#d81988"/><stop offset=".144" stop-color="#d11a87"/><stop offset=".332" stop-color="#c01d84"/><stop offset=".549" stop-color="#a42280"/><stop offset=".786" stop-color="#7d297a"/><stop offset="1" stop-color="#533174"/></radialGradient><radialGradient xlink:href="#a" id="f" cx=".282" cy=".156" r=".846"/><radialGradient xlink:href="#a" id="h" cx=".282" cy=".156" r=".648"/><radialGradient xlink:href="#b" id="j" cx=".755" cy="-.069" r="1"/><radialGradient xlink:href="#a" id="l" cx=".122" cy="-.073" r="1.162"/><radialGradient xlink:href="#a" id="n" cx=".189" cy="-.073" r="1.163"/><radialGradient id="p" cx=".769" cy=".262" r=".735" gradientUnits="objectBoundingBox"><stop offset="0" stop-color="#dc5838"/><stop offset=".078" stop-color="#dc5838"/><stop offset=".189" stop-color="#d85238"/><stop offset=".326" stop-color="#cf4338"/><stop offset=".476" stop-color="#c02a39"/><stop offset=".634" stop-color="#ab0839"/><stop offset=".667" stop-color="#a7003a"/><stop offset="1" stop-color="#a7003a"/></radialGradient><radialGradient id="r" cx=".706" cy=".105" r="1.595" gradientUnits="objectBoundingBox"><stop offset="0" stop-color="#e9ad2b"/><stop offset=".101" stop-color="#e9ad2b"/><stop offset=".335" stop-color="#e18a2e"/><stop offset=".557" stop-color="#db7130"/><stop offset=".758" stop-color="#d86232"/><stop offset=".922" stop-color="#d75d33"/><stop offset="1" stop-color="#d75d33"/></radialGradient></defs><g data-name="Group 42050"><g clip-path="url(#c)" data-name="Group 42049" transform="translate(31.644 18.656)"><path fill="url(#b)" d="M0 0h5.791v5.793H0z" data-name="Rectangle 3290"/></g></g><g data-name="Group 42052"><g clip-path="url(#d)" data-name="Group 42051" transform="translate(40.143 .001)"><path fill="url(#a)" d="M0 0h5.792v5.791H0z" data-name="Rectangle 3291"/></g></g><g data-name="Group 42054"><g clip-path="url(#e)" data-name="Group 42053" transform="translate(65.333 12.794)"><path fill="url(#f)" d="M0 0h2.69v1.643H0z" data-name="Rectangle 3292"/></g></g><g data-name="Group 42056"><g clip-path="url(#g)" data-name="Group 42055" transform="translate(5.266 8.897)"><path fill="url(#h)" d="M0 0h75.547v75.546H0z" data-name="Rectangle 3293"/></g></g><g data-name="Group 42058"><g clip-path="url(#i)" data-name="Group 42057" transform="translate(46.003 1.858)"><path fill="url(#j)" d="M0 0h35.497v30.646H0z" data-name="Rectangle 3294" transform="translate(-2.43)"/></g></g><g data-name="Group 42060"><g clip-path="url(#k)" data-name="Group 42059" transform="translate(50.145 36.613)"><path fill="url(#l)" d="M0 0h5.791v4.858H0z" data-name="Rectangle 3295"/></g></g><g data-name="Group 42062"><g clip-path="url(#m)" data-name="Group 42061" transform="translate(14.127 23.015)"><path fill="url(#n)" d="M0 0h29.656v22.948H0z" data-name="Rectangle 3296" transform="translate(-2.277)"/></g></g><g data-name="Group 42064"><g clip-path="url(#o)" data-name="Group 42063" transform="translate(7.946 43.66)"><path fill="url(#p)" d="M0 0h80.159v57.536H0z" data-name="Rectangle 3297" transform="rotate(-10.58 4.113 44.37)"/></g></g><g data-name="Group 42066"><g clip-path="url(#q)" data-name="Group 42065" transform="translate(4.454 40.039)"><path fill="url(#r)" d="M0 0h79.599v34.27H0z" data-name="Rectangle 3298" transform="rotate(-10.58 1.724 21.866)"/></g></g><g data-name="Group 42068"><g clip-path="url(#s)" data-name="Group 42067"><text fill="#d75d33" data-name="DELICACY Restaurant" font-family="Roboto-Black, Roboto" font-size="6" font-weight="800" letter-spacing=".049em" transform="translate(38.53 93.393)"><tspan x="-36" y="0" letter-spacing=".05em">DELI</tspan><tspan y="0">C</tspan><tspan y="0" letter-spacing=".05em">A</tspan><tspan y="0">C</tspan><tspan y="0">Y</tspan><tspan xml:space="preserve" y="0"> RESTAURANT</tspan></text></g></g></svg>